# xmcd CD database file
#
# Track frame offsets:
#	215
#	33045
#	69567
#	81055
#	106065
#	130430
#	148340
#	184742
#	204597
#	227415
#	254055
#
# Disc length: 3659 seconds
#
# Revision: 2
# Processed by: cddbd v1.5.2PL0 Copyright (c) Steve Scherf et al.
# Submitted via: CDex 1.51
#
DISCID=990e490b
DTITLE=New Orleans Dixieland Allstars - Best of Bourbon Street Jazz: Dixieland's Greatest Hits
DYEAR=1990
DGENRE=Jazz
TTITLE0=Bourbon Street Parade
TTITLE1=Just A Closer Walk With Thee
TTITLE2=South Rampart Street Parade
TTITLE3=Basin Street Blues
TTITLE4=When The Saints Go Marching In
TTITLE5=Shake It And Break It
TTITLE6=St. Louis Blues
TTITLE7=Wolverine Blues
TTITLE8=Tiger Rag
TTITLE9=St. James Infirmary
TTITLE10=All Of Me
EXTD=(c) 1990 Mardi Gras Records, Inc\nMG 1009 YEAR: 1990
EXTT0=
EXTT1=
EXTT2=
EXTT3=
EXTT4=
EXTT5=
EXTT6=
EXTT7=
EXTT8=
EXTT9=
EXTT10=
PLAYORDER=
